PathFileType	4	(X/Y/Z)	Patient4_TMGait_0pt3_01_right_17.trc.trc
DataRate	CameraRate	NumFrames	NumMarkers	Units	OrigDataRate	OrigDataStartFrame	OrigNumFrames
52.044609665427	52.044609665427	4	33	mm	52.044609665427	1	       141
Frame#	Time	Sacral			L.Shoulder			Chest			R.Shoulder			Neck			R.ASIS			L.ASIS			R.Thigh.Superior			R.Thigh.Lateral			R.Thigh.Inferior			R.Patella			L.Thigh.Superior			L.Thigh.Lateral			L.Thigh.Inferior			L.Patella			L.Shank.Superior			L.Shank.Lateral			L.Shank.Inferior			R.Shank.Superior			R.Shank.Lateral			R.Shank.Inferior			R.Heel			R.Midfoot.Superior			R.Midfoot.Lateral			R.Toe			L.Heel			L.Midfoot.Lateral			L.Midfoot.Superior			L.Toe			L.Elbow			L.Wrist			R.Elbow			R.Wrist			
		X1	Y1	Z1	X2	Y2	Z2	X3	Y3	Z3	X4	Y4	Z4	X5	Y5	Z5	X6	Y6	Z6	X7	Y7	Z7	X8	Y8	Z8	X9	Y9	Z9	X10	Y10	Z10	X11	Y11	Z11	X12	Y12	Z12	X13	Y13	Z13	X14	Y14	Z14	X15	Y15	Z15	X16	Y16	Z16	X17	Y17	Z17	X18	Y18	Z18	X19	Y19	Z19	X20	Y20	Z20	X21	Y21	Z21	X22	Y22	Z22	X23	Y23	Z23	X24	Y24	Z24	X25	Y25	Z25	X26	Y26	Z26	X27	Y27	Z27	X28	Y28	Z28	X29	Y29	Z29	X30	Y30	Z30	X31	Y31	Z31	X32	Y32	Z32	X33	Y33	Z33	

1	30.660000000000	799.763376315998	982.788030979838	470.068704203730	955.826159686052	1427.295015467387	307.608097855595	1057.395499930103	1360.017590615652	470.598006145611	964.290988755679	1421.764214772880	643.693636090740	929.612416617166	1483.296540662064	467.772536735053	1030.425588603401	928.557469539548	591.762136661237	1026.217108480902	959.549372470187	316.714901522195	1092.021536525196	734.799259568547	570.464336055063	1024.797956911748	620.496983166548	637.930088852997	1112.662190820498	566.957881216466	565.184366585458	1109.203968580191	454.059417053568	590.716021971613	1088.558426416685	749.980210913657	355.757782084842	1015.186966241758	621.989072906312	298.960099982288	1104.685125959912	554.645215414010	368.394643427383	1110.080606940414	481.748806383670	379.475002102716	1074.880250605381	405.382529324656	376.622638201408	975.920445824390	296.981159698910	328.984034559481	1012.643930490764	185.980738893509	407.111987666280	1023.867930474448	390.566763398874	595.554646304686	893.860809304589	367.672840981442	647.233908186821	873.675840213927	256.619485107911	602.386408095665	669.850380757678	210.457802202567	556.138576316185	828.727999049334	144.066068559881	621.826707571689	715.878492364651	154.252551313750	640.824344151986	881.362851106484	31.719936421216	664.653905888243	871.588993500769	37.796254349698	452.230489058158	945.904728088586	35.731405704499	371.603733343203	1029.755180944993	95.790880787739	399.675471992654	1157.700907610322	43.949139375534	371.415949828018	1031.682813634072	1091.564299432304	168.573054558581	1203.552478624558	894.641367401929	162.140257785839	998.686423484724	1066.507087982319	748.581046944838	1162.117798060525	861.442047641309	764.328315687661	
2	30.679214285714	798.801121795721	981.857546165796	466.817442015663	959.062701782161	1426.805406141998	307.155588766637	1057.584826068752	1358.584533128626	471.473836157046	961.813662576256	1419.611803262167	643.311404084194	930.468905207982	1482.415190864092	467.275828777019	1028.295229032173	928.141536130312	590.625698277382	1025.903367715117	958.207324620605	315.671822920473	1093.931527012459	737.335474855754	569.069769041868	1029.568778684691	621.836594628787	636.539660306746	1118.699166145766	570.266388152335	563.686674389868	1117.762809471286	457.092877896940	589.230050758293	1088.312985484550	748.657068246849	355.032823612007	1015.096376335490	620.580194477898	298.446198037204	1103.820896089223	553.289619096966	368.839253718735	1109.000622797922	480.248580384850	380.194774317696	1072.936803664234	403.911829951333	377.224932390108	973.344011011546	296.343263619076	329.068258251926	1008.049465202204	185.105903195130	407.418950216229	1032.857000678726	392.579113159263	594.130815271919	902.761740173596	368.822716784145	645.309037158413	883.331219644140	257.711326532867	600.657876713837	679.546851820397	209.668675162183	554.164196459312	839.259165835561	145.129059634834	619.965677987940	726.189691105281	153.944378467775	638.919529989367	893.125121453521	33.227452052250	662.799148358615	865.669127047466	37.837706066633	452.137527798823	940.021412170449	35.760445347528	371.570370983692	1023.978998949747	95.628296633916	399.817369172280	1151.871498244864	43.618818273939	371.403569146322	1039.607831029118	1092.667129479831	167.634919508477	1218.940750323396	902.988204822619	163.828730371195	978.328954485691	1063.824452556526	745.401441029855	1121.310689134956	847.921894252732	761.586119587753	
3	30.698428571429	797.825761862796	981.190541268972	463.533179092918	962.467087656423	1426.536195872376	306.791777655887	1057.807636367455	1357.341767210012	472.475458684219	959.264872268070	1417.676568471780	642.961884471770	931.369825583290	1481.723138702115	466.856049436197	1026.064286975302	927.915325297949	589.590609440455	1025.658878588427	957.033344680122	314.750596193861	1095.645972765600	740.066966685975	567.684284287950	1034.231810489418	623.406460607545	635.190026006370	1124.494494274439	573.794931369017	562.136322679358	1126.170610852093	460.425241565032	587.753110167156	1087.902628928910	747.374947125585	354.381174866461	1014.679506571928	619.303718332107	297.975679381658	1102.559159324499	551.974603581296	369.300308791321	1107.455142946973	478.823126979038	380.934996525222	1070.580830049194	402.545438668591	377.823370847212	970.428143056804	295.750682991340	329.135286346140	1003.215425399449	184.290625139468	407.707927191127	1041.899588829950	394.743284521560	592.789723144708	911.804614332734	369.710986710210	643.470351902939	893.533298010329	258.449806992626	599.090711588831	690.016715566381	207.729199046652	552.362512330051	850.749842333423	145.789559490490	618.380691602816	737.453737055704	152.790550272508	637.259283835028	906.245792195013	34.615331266461	661.330769500008	859.592897260179	37.877223818927	452.043354664924	933.988148565933	35.785814409965	371.533266125802	1018.043375118597	95.472671772343	399.945708087042	1145.893028033220	43.291884339555	371.391915036941	1047.582144207017	1094.014981403906	166.731608335493	1234.583844659104	912.040944868986	165.845424348168	957.445244400087	1061.698913625957	742.128373358025	1079.644792630962	835.377993569100	758.622549022754	
4	30.717642857143	796.857130493535	980.941629125451	460.309086986061	966.019314322253	1426.596477620355	306.578909290219	1058.073568161926	1356.421885036753	473.640768210917	956.692562945670	1416.139208028444	642.675054044750	932.316169682929	1481.339610153869	466.554753624044	1023.745855594420	927.982175324695	588.751586805622	1025.513807703500	956.144599397931	314.055360412900	1096.994358702210	742.991450083383	566.385198328892	1038.536877690689	625.255671022472	633.963953232426	1129.712823678118	577.519925298111	560.597770673840	1134.047913808611	464.095050986009	586.361924524544	1087.241606869045	746.192606216912	353.868838830238	1013.762348879040	618.269367111969	297.587142660284	1100.707860357921	550.761626243294	369.772506574333	1105.226501773265	477.558816833906	381.678384443293	1067.652725877958	401.384802245148	378.391987469175	967.068966666993	295.247138149923	329.171920877083	998.154514939638	183.594226829620	407.959564114000	1050.715435599955	397.070814066809	591.631528733145	920.809557766321	370.165274486315	641.864818303577	904.269865826016	258.656622393438	597.834079024535	701.409676430520	204.152573075925	550.923319821597	863.374691321139	145.853185638451	617.257226038016	749.888809212190	150.428958065492	636.037814332697	921.045287961562	35.836728611470	660.451758966130	853.460244811074	37.912305045895	451.950263167204	927.906378294032	35.804833218023	371.491604277831	1012.042537251439	95.332427748452	400.049276686356	1139.865557726912	42.982901490298	371.381000912212	1055.413573814109	1095.688316400748	165.926038530680	1250.124713854218	921.892431934054	168.301365832421	936.453071849978	1060.505448400737	738.813019964221	1038.071226491143	824.711596199675	755.419700765679	
